<?xml version="1.0" encoding="UTF-8"?>
<svg id="Layer_2" data-name="Layer 2" xmlns="http://www.w3.org/2000/svg" viewBox="0 0 108.89 108.89">
  <defs>
    <style>
      .cls-1 {
        fill: #ffd04c;
      }
    </style>
  </defs>
  <g id="Layer_1-2" data-name="Layer 1">
    <g id="New_Symbol_431" data-name="New Symbol 431">
      <g id="Layer_2-2" data-name="Layer 2">
        <g id="Layer_1-2" data-name="Layer 1-2">
          <polygon class="cls-1" points="37.55 108.89 52.56 108.89 52.56 90.12 90.12 90.12 90.12 75.09 52.56 75.09 52.56 56.33 37.55 56.33 37.55 108.89"/>
          <polygon class="cls-1" points="108.89 71.34 108.89 56.33 90.12 56.33 90.12 18.78 75.09 18.78 75.09 56.33 56.33 56.33 56.33 71.34 108.89 71.34"/>
          <polygon class="cls-1" points="71.34 0 56.33 0 56.33 18.78 18.78 18.78 18.78 33.79 56.33 33.79 56.33 52.56 71.34 52.56 71.34 0"/>
          <polygon class="cls-1" points="0 37.55 0 52.56 18.78 52.56 18.78 90.12 33.79 90.12 33.79 52.56 52.56 52.56 52.56 37.55 0 37.55"/>
        </g>
      </g>
    </g>
  </g>
</svg>